<?xml version="1.0" standalone="no"?>
<!DOCTYPE svg PUBLIC "-//W3C//DTD SVG 20010904//EN"
 "http://www.w3.org/TR/2001/REC-SVG-20010904/DTD/svg10.dtd">
<svg version="1.0" xmlns="http://www.w3.org/2000/svg"
 width="256.000000pt" height="256.000000pt" viewBox="0 0 256.000000 256.000000"
 preserveAspectRatio="xMidYMid meet">
<metadata>
Created by potrace 1.14, written by Peter Selinger 2001-2017
</metadata>
<g transform="translate(0.000000,256.000000) scale(0.100000,-0.100000)"
fill="#000000" stroke="none">
<path d="M1069 2539 c-271 -46 -527 -181 -710 -374 -69 -73 -90 -99 -143 -180
-147 -222 -216 -457 -211 -725 3 -167 25 -289 80 -433 89 -237 270 -469 471
-602 136 -91 351 -182 469 -199 22 -4 65 -10 95 -15 71 -12 297 -7 380 7 201
36 396 121 560 247 259 199 427 484 486 825 4 25 8 113 8 195 0 167 -15 259
-66 410 -146 431 -532 765 -973 840 -16 3 -41 7 -55 10 -66 15 -289 11 -391
-6z"/>
</g>
</svg>
